<mxfile host="app.diagrams.net" modified="2023-09-04T09:26:47.807Z" agent="Mozilla/5.0 (Windows NT 10.0; Win64; x64) AppleWebKit/537.36 (KHTML, like Gecko) Chrome/116.0.0.0 Safari/537.36 Edg/116.0.1938.69" etag="JzCTTa4PKZv0Uf0iUzJz" version="21.7.1" type="github">
  <diagram name="第 1 页" id="uWbumMfeT9-QRZjNmuQA">
    <mxGraphModel dx="1155" dy="633" grid="1" gridSize="10" guides="1" tooltips="1" connect="1" arrows="1" fold="1" page="1" pageScale="1" pageWidth="827" pageHeight="1169" math="0" shadow="0">
      <root>
        <mxCell id="0" />
        <mxCell id="1" parent="0" />
        <mxCell id="EFoKCrB92OEJu4wPz9vw-4" style="edgeStyle=orthogonalEdgeStyle;rounded=0;orthogonalLoop=1;jettySize=auto;html=1;entryX=0.5;entryY=1;entryDx=0;entryDy=0;" edge="1" parent="1" source="EFoKCrB92OEJu4wPz9vw-1" target="EFoKCrB92OEJu4wPz9vw-2">
          <mxGeometry relative="1" as="geometry" />
        </mxCell>
        <mxCell id="EFoKCrB92OEJu4wPz9vw-1" value="" style="image;aspect=fixed;perimeter=ellipsePerimeter;html=1;align=center;shadow=0;dashed=0;spacingTop=3;image=img/lib/active_directory/user.svg;" vertex="1" parent="1">
          <mxGeometry x="388" y="450" width="25.9" height="70" as="geometry" />
        </mxCell>
        <mxCell id="EFoKCrB92OEJu4wPz9vw-8" style="edgeStyle=orthogonalEdgeStyle;rounded=0;orthogonalLoop=1;jettySize=auto;html=1;exitX=0;exitY=0.25;exitDx=0;exitDy=0;entryX=0.5;entryY=1;entryDx=0;entryDy=0;" edge="1" parent="1" source="EFoKCrB92OEJu4wPz9vw-2" target="EFoKCrB92OEJu4wPz9vw-5">
          <mxGeometry relative="1" as="geometry" />
        </mxCell>
        <mxCell id="EFoKCrB92OEJu4wPz9vw-9" style="edgeStyle=orthogonalEdgeStyle;rounded=0;orthogonalLoop=1;jettySize=auto;html=1;exitX=0.5;exitY=0;exitDx=0;exitDy=0;entryX=0.5;entryY=1;entryDx=0;entryDy=0;" edge="1" parent="1" source="EFoKCrB92OEJu4wPz9vw-2" target="EFoKCrB92OEJu4wPz9vw-6">
          <mxGeometry relative="1" as="geometry" />
        </mxCell>
        <mxCell id="EFoKCrB92OEJu4wPz9vw-10" style="edgeStyle=orthogonalEdgeStyle;rounded=0;orthogonalLoop=1;jettySize=auto;html=1;exitX=1;exitY=0.25;exitDx=0;exitDy=0;entryX=0.5;entryY=1;entryDx=0;entryDy=0;" edge="1" parent="1" source="EFoKCrB92OEJu4wPz9vw-2" target="EFoKCrB92OEJu4wPz9vw-7">
          <mxGeometry relative="1" as="geometry" />
        </mxCell>
        <mxCell id="EFoKCrB92OEJu4wPz9vw-2" value="" style="image;aspect=fixed;perimeter=ellipsePerimeter;html=1;align=center;shadow=0;dashed=0;spacingTop=3;image=img/lib/active_directory/laptop_client.svg;" vertex="1" parent="1">
          <mxGeometry x="378.45" y="360" width="45" height="50" as="geometry" />
        </mxCell>
        <mxCell id="EFoKCrB92OEJu4wPz9vw-14" style="edgeStyle=orthogonalEdgeStyle;rounded=0;orthogonalLoop=1;jettySize=auto;html=1;exitX=1;exitY=0.5;exitDx=0;exitDy=0;" edge="1" parent="1" source="EFoKCrB92OEJu4wPz9vw-5">
          <mxGeometry relative="1" as="geometry">
            <mxPoint x="360" y="285.33333333333337" as="targetPoint" />
          </mxGeometry>
        </mxCell>
        <mxCell id="EFoKCrB92OEJu4wPz9vw-16" value="Session" style="edgeLabel;html=1;align=center;verticalAlign=middle;resizable=0;points=[];" vertex="1" connectable="0" parent="EFoKCrB92OEJu4wPz9vw-14">
          <mxGeometry x="0.0414" relative="1" as="geometry">
            <mxPoint as="offset" />
          </mxGeometry>
        </mxCell>
        <mxCell id="EFoKCrB92OEJu4wPz9vw-17" style="rounded=0;orthogonalLoop=1;jettySize=auto;html=1;entryX=0.5;entryY=1;entryDx=0;entryDy=0;" edge="1" parent="1" source="EFoKCrB92OEJu4wPz9vw-5" target="EFoKCrB92OEJu4wPz9vw-11">
          <mxGeometry relative="1" as="geometry" />
        </mxCell>
        <mxCell id="EFoKCrB92OEJu4wPz9vw-5" value="page1" style="rounded=0;whiteSpace=wrap;html=1;" vertex="1" parent="1">
          <mxGeometry x="200" y="270" width="60" height="30" as="geometry" />
        </mxCell>
        <mxCell id="EFoKCrB92OEJu4wPz9vw-15" style="edgeStyle=orthogonalEdgeStyle;rounded=0;orthogonalLoop=1;jettySize=auto;html=1;exitX=1;exitY=0.5;exitDx=0;exitDy=0;entryX=0;entryY=0.5;entryDx=0;entryDy=0;" edge="1" parent="1" source="EFoKCrB92OEJu4wPz9vw-6" target="EFoKCrB92OEJu4wPz9vw-7">
          <mxGeometry relative="1" as="geometry" />
        </mxCell>
        <mxCell id="EFoKCrB92OEJu4wPz9vw-18" style="edgeStyle=orthogonalEdgeStyle;rounded=0;orthogonalLoop=1;jettySize=auto;html=1;entryX=0.431;entryY=1.039;entryDx=0;entryDy=0;entryPerimeter=0;" edge="1" parent="1" source="EFoKCrB92OEJu4wPz9vw-6" target="EFoKCrB92OEJu4wPz9vw-11">
          <mxGeometry relative="1" as="geometry">
            <mxPoint x="400.95000000000005" y="170" as="targetPoint" />
          </mxGeometry>
        </mxCell>
        <mxCell id="EFoKCrB92OEJu4wPz9vw-6" value="page2" style="rounded=0;whiteSpace=wrap;html=1;" vertex="1" parent="1">
          <mxGeometry x="365.95" y="270" width="70" height="30" as="geometry" />
        </mxCell>
        <mxCell id="EFoKCrB92OEJu4wPz9vw-19" style="rounded=0;orthogonalLoop=1;jettySize=auto;html=1;" edge="1" parent="1" source="EFoKCrB92OEJu4wPz9vw-7">
          <mxGeometry relative="1" as="geometry">
            <mxPoint x="400" y="160" as="targetPoint" />
          </mxGeometry>
        </mxCell>
        <mxCell id="EFoKCrB92OEJu4wPz9vw-7" value="page3" style="rounded=0;whiteSpace=wrap;html=1;" vertex="1" parent="1">
          <mxGeometry x="550" y="270" width="70" height="30" as="geometry" />
        </mxCell>
        <mxCell id="EFoKCrB92OEJu4wPz9vw-20" style="edgeStyle=orthogonalEdgeStyle;rounded=0;orthogonalLoop=1;jettySize=auto;html=1;" edge="1" parent="1" source="EFoKCrB92OEJu4wPz9vw-11" target="EFoKCrB92OEJu4wPz9vw-12">
          <mxGeometry relative="1" as="geometry" />
        </mxCell>
        <mxCell id="EFoKCrB92OEJu4wPz9vw-11" value="application" style="rounded=1;whiteSpace=wrap;html=1;" vertex="1" parent="1">
          <mxGeometry x="365.95" y="130" width="81" height="30" as="geometry" />
        </mxCell>
        <mxCell id="EFoKCrB92OEJu4wPz9vw-12" value="" style="image;aspect=fixed;perimeter=ellipsePerimeter;html=1;align=center;shadow=0;dashed=0;spacingTop=3;image=img/lib/active_directory/generic_server.svg;" vertex="1" parent="1">
          <mxGeometry x="386.23" y="17.77" width="40.45" height="72.23" as="geometry" />
        </mxCell>
        <mxCell id="EFoKCrB92OEJu4wPz9vw-13" value="pageContext" style="text;html=1;align=center;verticalAlign=middle;resizable=0;points=[];autosize=1;strokeColor=none;fillColor=none;" vertex="1" parent="1">
          <mxGeometry x="220" y="380" width="90" height="30" as="geometry" />
        </mxCell>
        <mxCell id="EFoKCrB92OEJu4wPz9vw-21" value="Request" style="text;html=1;align=center;verticalAlign=middle;resizable=0;points=[];autosize=1;strokeColor=none;fillColor=none;" vertex="1" parent="1">
          <mxGeometry x="230" y="340" width="70" height="30" as="geometry" />
        </mxCell>
      </root>
    </mxGraphModel>
  </diagram>
</mxfile>
